<svg width="92" height="101" viewBox="0 0 92 101" fill="none" xmlns="http://www.w3.org/2000/svg">
<path d="M0 101V82.6364H92V101H0ZM18.4 64.2727H24.84L60.72 28.5784L57.385 25.25L54.165 22.0364L18.4 57.8455V64.2727ZM9.2 73.4545V53.9432L60.72 2.63977C61.5633 1.79811 62.5408 1.14773 63.6525 0.688636C64.7642 0.229545 65.9333 0 67.16 0C68.3867 0 69.575 0.229545 70.725 0.688636C71.875 1.14773 72.91 1.83636 73.83 2.75455L80.155 9.18182C81.075 10.0235 81.7458 11.0182 82.1675 12.1659C82.5892 13.3136 82.8 14.4996 82.8 15.7239C82.8 16.8716 82.5892 18.0002 82.1675 19.1097C81.7458 20.2191 81.075 21.233 80.155 22.1511L28.75 73.4545H9.2ZM60.72 28.5784L57.385 25.25L54.165 22.0364L60.72 28.5784Z" fill="#4985EB"/>
</svg>
