<svg width="93" height="93" viewBox="0 0 93 93" fill="none" xmlns="http://www.w3.org/2000/svg">
<path d="M39.99 67.89L72.7725 35.1075L66.2625 28.5975L39.99 54.87L26.7375 41.6175L20.2275 48.1275L39.99 67.89ZM46.5 93C40.0675 93 34.0225 91.7794 28.365 89.3381C22.7075 86.8969 17.7863 83.5838 13.6013 79.3988C9.41625 75.2138 6.10313 70.2925 3.66188 64.635C1.22063 58.9775 0 52.9325 0 46.5C0 40.0675 1.22063 34.0225 3.66188 28.365C6.10313 22.7075 9.41625 17.7863 13.6013 13.6013C17.7863 9.41625 22.7075 6.10313 28.365 3.66188C34.0225 1.22063 40.0675 0 46.5 0C52.9325 0 58.9775 1.22063 64.635 3.66188C70.2925 6.10313 75.2138 9.41625 79.3988 13.6013C83.5838 17.7863 86.8969 22.7075 89.3381 28.365C91.7794 34.0225 93 40.0675 93 46.5C93 52.9325 91.7794 58.9775 89.3381 64.635C86.8969 70.2925 83.5838 75.2138 79.3988 79.3988C75.2138 83.5838 70.2925 86.8969 64.635 89.3381C58.9775 91.7794 52.9325 93 46.5 93ZM46.5 83.7C56.885 83.7 65.6813 80.0963 72.8888 72.8888C80.0963 65.6813 83.7 56.885 83.7 46.5C83.7 36.115 80.0963 27.3188 72.8888 20.1113C65.6813 12.9038 56.885 9.3 46.5 9.3C36.115 9.3 27.3188 12.9038 20.1113 20.1113C12.9038 27.3188 9.3 36.115 9.3 46.5C9.3 56.885 12.9038 65.6813 20.1113 72.8888C27.3188 80.0963 36.115 83.7 46.5 83.7Z" fill="#E63946"/>
</svg>
