<svg width="96" height="96" viewBox="0 0 96 96" fill="none" xmlns="http://www.w3.org/2000/svg">
<path d="M17.2397 38.2438L26.5779 42.1899C27.6953 39.9577 28.8526 37.8053 30.0498 35.7326C31.247 33.6599 32.5639 31.5873 34.0005 29.5146L27.2962 28.1992L17.2397 38.2438ZM34.24 48.1688L47.8881 61.6811C51.2402 60.4056 54.8318 58.4525 58.6629 55.8218C62.4939 53.191 66.0855 50.2016 69.4377 46.8534C75.0246 41.2731 79.3944 35.075 82.5471 28.259C85.6997 21.4431 87.0765 15.1652 86.6774 9.42545C80.9308 9.02686 74.6256 10.402 67.7616 13.5509C60.8977 16.6998 54.6722 21.0644 49.0853 26.6447C45.7331 29.9929 42.7401 33.5802 40.1063 37.4067C37.4724 41.2332 35.517 44.8206 34.24 48.1688ZM52.7966 33.64C52.7966 30.9694 53.7144 28.7174 55.5502 26.8839C57.3859 25.0503 59.6605 24.1336 62.3742 24.1336C65.0879 24.1336 67.3625 25.0503 69.1983 26.8839C71.034 28.7174 71.9518 30.9694 71.9518 33.64C71.9518 36.3106 71.034 38.5627 69.1983 40.3962C67.3625 42.2297 65.0879 43.1465 62.3742 43.1465C59.6605 43.1465 57.3859 42.2297 55.5502 40.3962C53.7144 38.5627 52.7966 36.3106 52.7966 33.64ZM57.8248 78.7808L67.8813 68.7362L66.5644 62.0398C64.4893 63.4748 62.4141 64.7702 60.339 65.9261C58.2638 67.082 56.1088 68.218 53.8741 69.3341L57.8248 78.7808ZM95.2972 0.696253C96.8137 10.3422 95.8759 19.7291 92.4838 28.8569C89.0918 37.9847 83.2454 46.694 74.9448 54.9847L77.3392 66.8229C77.6585 68.4173 77.5787 69.9718 77.0998 71.4865C76.6209 73.0011 75.8228 74.3165 74.7054 75.4326L54.5924 95.5217L44.5359 71.9648L24.0638 51.5169L0.478881 41.4724L20.4721 21.3833C21.5895 20.2672 22.9264 19.47 24.4828 18.9917C26.0391 18.5134 27.6155 18.4337 29.2117 18.7525L41.064 21.1441C49.3646 12.8534 58.0643 6.99403 67.163 3.56613C76.2617 0.138222 85.6398 -0.818403 95.2972 0.696253ZM8.97901 66.7034C11.7725 63.9132 15.1845 62.4982 19.2151 62.4583C23.2457 62.4185 26.6577 63.7936 29.4512 66.5838C32.2446 69.3739 33.6214 72.7819 33.5815 76.8077C33.5416 80.8335 32.1249 84.2415 29.3314 87.0316C27.3361 89.0246 24.0039 90.7386 19.3348 92.1735C14.6657 93.6084 8.22078 94.8839 0 96C1.11739 87.789 2.3944 81.3517 3.83105 76.6881C5.26769 72.0246 6.98368 68.6963 8.97901 66.7034ZM15.8031 73.3997C15.0049 74.1969 14.2068 75.6518 13.4087 77.7643C12.6105 79.8769 12.0518 82.0094 11.7326 84.1618C13.8875 83.8429 16.0225 83.3048 18.1376 82.5475C20.2527 81.7901 21.7093 81.0129 22.5074 80.2157C23.4652 79.2591 23.9839 78.1031 24.0638 76.7479C24.1436 75.3927 23.7046 74.2368 22.7468 73.2802C21.7891 72.3235 20.6318 71.8652 19.2749 71.905C17.9181 71.9449 16.7608 72.4431 15.8031 73.3997Z" fill="#9449D8"/>
</svg>
