<svg width="69" height="69" viewBox="0 0 69 69" fill="none" xmlns="http://www.w3.org/2000/svg">
<path d="M21.045 66.2831C16.8475 64.4719 13.1962 62.0137 10.0913 58.9087C6.98625 55.8037 4.52812 52.1525 2.71688 47.955C0.905625 43.7575 0 39.2725 0 34.5C0 29.7275 0.905625 25.2425 2.71688 21.045C4.52812 16.8475 6.98625 13.1962 10.0913 10.0913C13.1962 6.98625 16.8475 4.52812 21.045 2.71688C25.2425 0.905625 29.7275 0 34.5 0C39.2725 0 43.7575 0.905625 47.955 2.71688C52.1525 4.52812 55.8037 6.98625 58.9087 10.0913C62.0137 13.1962 64.4719 16.8475 66.2831 21.045C68.0944 25.2425 69 29.7275 69 34.5C69 39.2725 68.0944 43.7575 66.2831 47.955C64.4719 52.1525 62.0137 55.8037 58.9087 58.9087C55.8037 62.0137 52.1525 64.4719 47.955 66.2831C43.7575 68.0944 39.2725 69 34.5 69C29.7275 69 25.2425 68.0944 21.045 66.2831ZM54.0788 54.0788C59.4263 48.7313 62.1 42.205 62.1 34.5C62.1 26.795 59.4263 20.2687 54.0788 14.9213C48.7313 9.57375 42.205 6.9 34.5 6.9C26.795 6.9 20.2687 9.57375 14.9213 14.9213C9.57375 20.2687 6.9 26.795 6.9 34.5C6.9 42.205 9.57375 48.7313 14.9213 54.0788C20.2687 59.4263 26.795 62.1 34.5 62.1C42.205 62.1 48.7313 59.4263 54.0788 54.0788ZM19.8375 49.1625C15.8125 45.1375 13.8 40.25 13.8 34.5C13.8 28.75 15.8125 23.8625 19.8375 19.8375C23.8625 15.8125 28.75 13.8 34.5 13.8C40.25 13.8 45.1375 15.8125 49.1625 19.8375C53.1875 23.8625 55.2 28.75 55.2 34.5C55.2 40.25 53.1875 45.1375 49.1625 49.1625C45.1375 53.1875 40.25 55.2 34.5 55.2C28.75 55.2 23.8625 53.1875 19.8375 49.1625ZM44.2463 44.2463C46.9487 41.5438 48.3 38.295 48.3 34.5C48.3 30.705 46.9487 27.4562 44.2463 24.7537C41.5438 22.0513 38.295 20.7 34.5 20.7C30.705 20.7 27.4562 22.0513 24.7537 24.7537C22.0513 27.4562 20.7 30.705 20.7 34.5C20.7 38.295 22.0513 41.5438 24.7537 44.2463C27.4562 46.9487 30.705 48.3 34.5 48.3C38.295 48.3 41.5438 46.9487 44.2463 44.2463ZM29.6269 39.3731C28.2756 38.0219 27.6 36.3975 27.6 34.5C27.6 32.6025 28.2756 30.9781 29.6269 29.6269C30.9781 28.2756 32.6025 27.6 34.5 27.6C36.3975 27.6 38.0219 28.2756 39.3731 29.6269C40.7244 30.9781 41.4 32.6025 41.4 34.5C41.4 36.3975 40.7244 38.0219 39.3731 39.3731C38.0219 40.7244 36.3975 41.4 34.5 41.4C32.6025 41.4 30.9781 40.7244 29.6269 39.3731Z" fill="white"/>
</svg>
