<svg width="35" height="36" viewBox="0 0 35 36" fill="none" xmlns="http://www.w3.org/2000/svg">
<path d="M11.875 35.625C8.57639 35.625 5.77257 34.4573 3.46354 32.1219C1.15451 29.7865 0 26.9694 0 23.6708C0 20.3722 1.14132 17.5816 3.42396 15.299C5.7066 13.0163 8.49722 11.875 11.7958 11.875H12.3104L13.3792 10.0146C13.6958 9.43403 14.1708 9.05799 14.8042 8.88646C15.4375 8.71493 16.0444 8.80069 16.625 9.14375L17.8125 9.81667L18.0104 9.5C18.6174 8.36528 19.5674 7.62639 20.8604 7.28333C22.1535 6.94028 23.3674 7.09861 24.5021 7.75833L25.8875 8.55L24.3042 11.2812L22.9187 10.4896C22.5493 10.2785 22.1469 10.2323 21.7115 10.351C21.276 10.4698 20.9528 10.7139 20.7417 11.0833L20.5437 11.4L22.1271 12.3104C22.6812 12.6271 23.0441 13.1021 23.2156 13.7354C23.3872 14.3687 23.3146 14.9625 22.9979 15.5167L21.9292 17.4167C22.5361 18.3667 22.9913 19.376 23.2948 20.4448C23.5983 21.5135 23.75 22.6153 23.75 23.75C23.75 27.0486 22.5955 29.8524 20.2865 32.1615C17.9774 34.4705 15.1736 35.625 11.875 35.625ZM11.875 32.4583C14.2764 32.4583 16.3281 31.6073 18.0302 29.9052C19.7323 28.2031 20.5833 26.1514 20.5833 23.75C20.5833 22.9319 20.4712 22.1271 20.2469 21.3354C20.0226 20.5437 19.6861 19.7917 19.2375 19.0792L18.2083 17.4562L19.8708 14.6062L15.7542 12.2312L14.0917 15.0813H12.35C9.86944 15.0813 7.71215 15.8729 5.87812 17.4562C4.0441 19.0396 3.12708 21.1111 3.12708 23.6708C3.12708 26.0986 3.97812 28.1701 5.68021 29.8854C7.38229 31.6007 9.44722 32.4583 11.875 32.4583ZM29.8458 13.4583V10.2917H34.5958V13.4583H29.8458ZM21.1375 4.75V0H24.3042V4.75H21.1375ZM28.8562 7.95625L26.6396 5.73958L30.0042 2.375L32.2208 4.59167L28.8562 7.95625Z" fill="#56BAA9"/>
</svg>
