<svg width="33" height="34" viewBox="0 0 33 34" fill="none" xmlns="http://www.w3.org/2000/svg">
<path d="M1.33936 28.3332V24.3665C1.33936 23.5637 1.53468 22.8259 1.92534 22.153C2.316 21.48 2.83501 20.9665 3.48239 20.6123C4.86643 19.8804 6.27279 19.3314 7.70148 18.9655C9.13016 18.5995 10.5812 18.4165 12.0545 18.4165C13.5278 18.4165 14.9788 18.5995 16.4075 18.9655C17.8362 19.3314 19.2426 19.8804 20.6266 20.6123C21.274 20.9665 21.793 21.48 22.1837 22.153C22.5743 22.8259 22.7697 23.5637 22.7697 24.3665V28.3332H1.33936ZM25.4484 28.3332V24.0832C25.4484 23.0443 25.175 22.0467 24.6281 21.0905C24.0811 20.1342 23.3054 19.3137 22.3009 18.629C23.4394 18.7707 24.5109 19.0127 25.5154 19.355C26.52 19.6974 27.4575 20.1165 28.3281 20.6123C29.1318 21.0846 29.7457 21.6099 30.1698 22.1884C30.594 22.7669 30.806 23.3984 30.806 24.0832V28.3332H25.4484ZM8.27072 15.3353C7.22153 14.2255 6.69693 12.8915 6.69693 11.3332C6.69693 9.77484 7.22153 8.44081 8.27072 7.33109C9.31991 6.22136 10.5812 5.6665 12.0545 5.6665C13.5278 5.6665 14.7891 6.22136 15.8383 7.33109C16.8875 8.44081 17.4121 9.77484 17.4121 11.3332C17.4121 12.8915 16.8875 14.2255 15.8383 15.3353C14.7891 16.445 13.5278 16.9998 12.0545 16.9998C10.5812 16.9998 9.31991 16.445 8.27072 15.3353ZM23.8747 15.3353C22.8255 16.445 21.5642 16.9998 20.0909 16.9998C19.8453 16.9998 19.5328 16.9703 19.1533 16.9113C18.7738 16.8523 18.4613 16.7873 18.2157 16.7165C18.8184 15.9609 19.2817 15.1228 19.6053 14.2019C19.929 13.2811 20.0909 12.3248 20.0909 11.3332C20.0909 10.3415 19.929 9.38525 19.6053 8.46442C19.2817 7.54359 18.8184 6.70539 18.2157 5.94984C18.5282 5.83178 18.8408 5.75505 19.1533 5.71963C19.4658 5.68421 19.7783 5.6665 20.0909 5.6665C21.5642 5.6665 22.8255 6.22136 23.8747 7.33109C24.9238 8.44081 25.4484 9.77484 25.4484 11.3332C25.4484 12.8915 24.9238 14.2255 23.8747 15.3353ZM4.01814 25.4998H20.0909V24.3665C20.0909 24.1068 20.0295 23.8707 19.9067 23.6582C19.7839 23.4457 19.6221 23.2804 19.4212 23.1623C18.2157 22.5248 16.9991 22.0467 15.7713 21.728C14.5435 21.4092 13.3046 21.2498 12.0545 21.2498C10.8044 21.2498 9.56547 21.4092 8.33769 21.728C7.10991 22.0467 5.89329 22.5248 4.68784 23.1623C4.48693 23.2804 4.32509 23.4457 4.20231 23.6582C4.07953 23.8707 4.01814 24.1068 4.01814 24.3665V25.4998ZM13.9464 13.3342C14.471 12.7794 14.7333 12.1123 14.7333 11.3332C14.7333 10.554 14.471 9.88699 13.9464 9.33213C13.4218 8.77727 12.7912 8.49984 12.0545 8.49984C11.3178 8.49984 10.6872 8.77727 10.1626 9.33213C9.63802 9.88699 9.37572 10.554 9.37572 11.3332C9.37572 12.1123 9.63802 12.7794 10.1626 13.3342C10.6872 13.8891 11.3178 14.1665 12.0545 14.1665C12.7912 14.1665 13.4218 13.8891 13.9464 13.3342Z" fill="#56BAA9"/>
</svg>
