<svg width="38" height="38" viewBox="0 0 38 38" fill="none" xmlns="http://www.w3.org/2000/svg">
<path d="M15.8332 28.4998C14.9623 28.4998 14.2169 28.1898 13.5967 27.5696C12.9766 26.9495 12.6665 26.204 12.6665 25.3332V23.354C11.1623 22.3248 9.99463 21.0054 9.16338 19.3957C8.33213 17.7859 7.9165 16.0707 7.9165 14.2498C7.9165 11.1623 8.99185 8.54324 11.1425 6.39255C13.2932 4.24185 15.9123 3.1665 18.9998 3.1665C22.0873 3.1665 24.7064 4.24185 26.8571 6.39255C29.0078 8.54324 30.0832 11.1623 30.0832 14.2498C30.0832 16.0707 29.6675 17.7794 28.8363 19.3759C28.005 20.9724 26.8373 22.2984 25.3332 23.354V25.3332C25.3332 26.204 25.0231 26.9495 24.403 27.5696C23.7828 28.1898 23.0373 28.4998 22.1665 28.4998H15.8332ZM15.8332 25.3332H22.1665V21.6915L23.5123 20.7415C24.5943 20.0026 25.4321 19.0592 26.0259 17.9113C26.6196 16.7634 26.9165 15.5429 26.9165 14.2498C26.9165 12.0596 26.1446 10.1925 24.6009 8.6488C23.0571 7.10505 21.1901 6.33317 18.9998 6.33317C16.8096 6.33317 14.9425 7.10505 13.3988 8.6488C11.855 10.1925 11.0832 12.0596 11.0832 14.2498C11.0832 15.5429 11.38 16.7634 11.9738 17.9113C12.5675 19.0592 13.4054 20.0026 14.4873 20.7415L15.8332 21.6915V25.3332ZM15.8332 34.8332C15.3846 34.8332 15.0085 34.6814 14.705 34.378C14.4016 34.0745 14.2498 33.6984 14.2498 33.2498V31.6665H23.7498V33.2498C23.7498 33.6984 23.5981 34.0745 23.2946 34.378C22.9912 34.6814 22.6151 34.8332 22.1665 34.8332H15.8332Z" fill="#56BAA9"/>
</svg>
