<svg width="39" height="39" viewBox="0 0 39 39" fill="none" xmlns="http://www.w3.org/2000/svg">
<path d="M8.125 35.75C7.23125 35.75 6.46615 35.4318 5.82969 34.7953C5.19323 34.1589 4.875 33.3937 4.875 32.5V9.75C4.875 8.85625 5.19323 8.09115 5.82969 7.45469C6.46615 6.81823 7.23125 6.5 8.125 6.5H9.75V3.25H13V6.5H26V3.25H29.25V6.5H30.875C31.7687 6.5 32.5339 6.81823 33.1703 7.45469C33.8068 8.09115 34.125 8.85625 34.125 9.75V32.5C34.125 33.3937 33.8068 34.1589 33.1703 34.7953C32.5339 35.4318 31.7687 35.75 30.875 35.75H8.125ZM8.125 32.5H30.875V16.25H8.125V32.5ZM8.125 13H30.875V9.75H8.125V13Z" fill="#235CD6"/>
</svg>
