<svg width="32" height="32" viewBox="0 0 32 32" fill="none" xmlns="http://www.w3.org/2000/svg">
<path d="M9.76 30.74C7.81333 29.9 6.12 28.76 4.68 27.32C3.24 25.88 2.1 24.1867 1.26 22.24C0.42 20.2933 0 18.2133 0 16C0 13.7867 0.42 11.7067 1.26 9.76C2.1 7.81333 3.24 6.12 4.68 4.68C6.12 3.24 7.81333 2.1 9.76 1.26C11.7067 0.42 13.7867 0 16 0C18.2133 0 20.2933 0.42 22.24 1.26C24.1867 2.1 25.88 3.24 27.32 4.68C28.76 6.12 29.9 7.81333 30.74 9.76C31.58 11.7067 32 13.7867 32 16C32 18.2133 31.58 20.2933 30.74 22.24C29.9 24.1867 28.76 25.88 27.32 27.32C25.88 28.76 24.1867 29.9 22.24 30.74C20.2933 31.58 18.2133 32 16 32C13.7867 32 11.7067 31.58 9.76 30.74ZM25.08 25.08C27.56 22.6 28.8 19.5733 28.8 16C28.8 12.4267 27.56 9.4 25.08 6.92C22.6 4.44 19.5733 3.2 16 3.2C12.4267 3.2 9.4 4.44 6.92 6.92C4.44 9.4 3.2 12.4267 3.2 16C3.2 19.5733 4.44 22.6 6.92 25.08C9.4 27.56 12.4267 28.8 16 28.8C19.5733 28.8 22.6 27.56 25.08 25.08ZM9.2 22.8C7.33333 20.9333 6.4 18.6667 6.4 16C6.4 13.3333 7.33333 11.0667 9.2 9.2C11.0667 7.33333 13.3333 6.4 16 6.4C18.6667 6.4 20.9333 7.33333 22.8 9.2C24.6667 11.0667 25.6 13.3333 25.6 16C25.6 18.6667 24.6667 20.9333 22.8 22.8C20.9333 24.6667 18.6667 25.6 16 25.6C13.3333 25.6 11.0667 24.6667 9.2 22.8ZM20.52 20.52C21.7733 19.2667 22.4 17.76 22.4 16C22.4 14.24 21.7733 12.7333 20.52 11.48C19.2667 10.2267 17.76 9.6 16 9.6C14.24 9.6 12.7333 10.2267 11.48 11.48C10.2267 12.7333 9.6 14.24 9.6 16C9.6 17.76 10.2267 19.2667 11.48 20.52C12.7333 21.7733 14.24 22.4 16 22.4C17.76 22.4 19.2667 21.7733 20.52 20.52ZM13.74 18.26C13.1133 17.6333 12.8 16.88 12.8 16C12.8 15.12 13.1133 14.3667 13.74 13.74C14.3667 13.1133 15.12 12.8 16 12.8C16.88 12.8 17.6333 13.1133 18.26 13.74C18.8867 14.3667 19.2 15.12 19.2 16C19.2 16.88 18.8867 17.6333 18.26 18.26C17.6333 18.8867 16.88 19.2 16 19.2C15.12 19.2 14.3667 18.8867 13.74 18.26Z" fill="#E63946"/>
</svg>
