<svg width="37" height="37" viewBox="0 0 37 37" fill="none" xmlns="http://www.w3.org/2000/svg">
<path d="M16.3418 25.5918L27.2106 14.7231L25.0522 12.5647L16.3418 21.2752L11.9481 16.8814L9.78975 19.0397L16.3418 25.5918ZM18.5002 33.9168C16.3675 33.9168 14.3634 33.5121 12.4877 32.7028C10.612 31.8934 8.98037 30.795 7.59287 29.4075C6.20537 28.02 5.10693 26.3884 4.29756 24.5127C3.48818 22.637 3.0835 20.6328 3.0835 18.5002C3.0835 16.3675 3.48818 14.3634 4.29756 12.4877C5.10693 10.612 6.20537 8.98037 7.59287 7.59287C8.98037 6.20537 10.612 5.10693 12.4877 4.29756C14.3634 3.48818 16.3675 3.0835 18.5002 3.0835C20.6328 3.0835 22.637 3.48818 24.5127 4.29756C26.3884 5.10693 28.02 6.20537 29.4075 7.59287C30.795 8.98037 31.8934 10.612 32.7028 12.4877C33.5121 14.3634 33.9168 16.3675 33.9168 18.5002C33.9168 20.6328 33.5121 22.637 32.7028 24.5127C31.8934 26.3884 30.795 28.02 29.4075 29.4075C28.02 30.795 26.3884 31.8934 24.5127 32.7028C22.637 33.5121 20.6328 33.9168 18.5002 33.9168ZM18.5002 30.8335C21.9432 30.8335 24.8595 29.6387 27.2491 27.2491C29.6387 24.8595 30.8335 21.9432 30.8335 18.5002C30.8335 15.0571 29.6387 12.1408 27.2491 9.7512C24.8595 7.36162 21.9432 6.16683 18.5002 6.16683C15.0571 6.16683 12.1408 7.36162 9.7512 9.7512C7.36162 12.1408 6.16683 15.0571 6.16683 18.5002C6.16683 21.9432 7.36162 24.8595 9.7512 27.2491C12.1408 29.6387 15.0571 30.8335 18.5002 30.8335Z" fill="#7FD353"/>
</svg>
