<svg width="94" height="69" viewBox="0 0 94 69" fill="none" xmlns="http://www.w3.org/2000/svg">
<path d="M0 69V56.925C0 54.4813 0.623106 52.2352 1.86932 50.1867C3.11553 48.1383 4.77121 46.575 6.83636 45.4969C11.2515 43.2688 15.7379 41.5977 20.2955 40.4836C24.853 39.3695 29.4818 38.8125 34.1818 38.8125C38.8818 38.8125 43.5106 39.3695 48.0682 40.4836C52.6258 41.5977 57.1121 43.2688 61.5273 45.4969C63.5924 46.575 65.2481 48.1383 66.4943 50.1867C67.7405 52.2352 68.3636 54.4813 68.3636 56.925V69H0ZM76.9091 69V56.0625C76.9091 52.9 76.0367 49.8633 74.292 46.9523C72.5474 44.0414 70.0727 41.5438 66.8682 39.4594C70.5 39.8906 73.9182 40.6273 77.1227 41.6695C80.3273 42.7117 83.3182 43.9875 86.0955 45.4969C88.6591 46.9344 90.6174 48.5336 91.9705 50.2945C93.3235 52.0555 94 53.9781 94 56.0625V69H76.9091ZM22.1114 29.4328C18.7644 26.0547 17.0909 21.9938 17.0909 17.25C17.0909 12.5063 18.7644 8.44531 22.1114 5.06719C25.4583 1.68906 29.4818 0 34.1818 0C38.8818 0 42.9053 1.68906 46.2523 5.06719C49.5992 8.44531 51.2727 12.5063 51.2727 17.25C51.2727 21.9938 49.5992 26.0547 46.2523 29.4328C42.9053 32.8109 38.8818 34.5 34.1818 34.5C29.4818 34.5 25.4583 32.8109 22.1114 29.4328ZM71.8886 29.4328C68.5417 32.8109 64.5182 34.5 59.8182 34.5C59.0348 34.5 58.0379 34.4102 56.8273 34.2305C55.6167 34.0508 54.6197 33.8531 53.8364 33.6375C55.7591 31.3375 57.2367 28.7859 58.2693 25.9828C59.3019 23.1797 59.8182 20.2688 59.8182 17.25C59.8182 14.2313 59.3019 11.3203 58.2693 8.51719C57.2367 5.71406 55.7591 3.1625 53.8364 0.8625C54.8333 0.503125 55.8303 0.269531 56.8273 0.161719C57.8242 0.0539063 58.8212 0 59.8182 0C64.5182 0 68.5417 1.68906 71.8886 5.06719C75.2356 8.44531 76.9091 12.5063 76.9091 17.25C76.9091 21.9938 75.2356 26.0547 71.8886 29.4328ZM8.54545 60.375H59.8182V56.925C59.8182 56.1344 59.6223 55.4156 59.2307 54.7688C58.839 54.1219 58.3227 53.6188 57.6818 53.2594C53.8364 51.3188 49.9553 49.8633 46.0386 48.893C42.122 47.9227 38.1697 47.4375 34.1818 47.4375C30.1939 47.4375 26.2417 47.9227 22.325 48.893C18.4083 49.8633 14.5273 51.3188 10.6818 53.2594C10.0409 53.6188 9.52462 54.1219 9.13295 54.7688C8.74129 55.4156 8.54545 56.1344 8.54545 56.925V60.375ZM40.217 23.3414C41.8905 21.6523 42.7273 19.6219 42.7273 17.25C42.7273 14.8781 41.8905 12.8477 40.217 11.1586C38.5436 9.46953 36.5318 8.625 34.1818 8.625C31.8318 8.625 29.8201 9.46953 28.1466 11.1586C26.4731 12.8477 25.6364 14.8781 25.6364 17.25C25.6364 19.6219 26.4731 21.6523 28.1466 23.3414C29.8201 25.0305 31.8318 25.875 34.1818 25.875C36.5318 25.875 38.5436 25.0305 40.217 23.3414Z" fill="#00CF7F"/>
</svg>
