<svg width="39" height="39" viewBox="0 0 39 39" fill="none" xmlns="http://www.w3.org/2000/svg">
<path d="M24.4728 35.8333C23.8394 35.8333 23.2325 35.7146 22.6519 35.4771C22.0714 35.2396 21.5568 34.8965 21.1082 34.4479L13.0332 26.3333L14.3394 24.9875C14.7089 24.6181 15.1575 24.3674 15.6853 24.2354C16.213 24.1035 16.7408 24.1035 17.2686 24.2354L19.9998 25.0271V13.6667C19.9998 13.2181 20.1516 12.842 20.455 12.5385C20.7585 12.2351 21.1346 12.0833 21.5832 12.0833C22.0318 12.0833 22.4078 12.2351 22.7113 12.5385C23.0148 12.842 23.1665 13.2181 23.1665 13.6667V29.2229L19.2873 28.1146L23.3644 32.1917C23.5228 32.35 23.6943 32.4688 23.879 32.5479C24.0637 32.6271 24.2616 32.6667 24.4728 32.6667H31.0832C31.954 32.6667 32.6995 32.3566 33.3196 31.7365C33.9398 31.1163 34.2498 30.3708 34.2498 29.5V23.1667C34.2498 22.7181 34.4016 22.342 34.705 22.0385C35.0085 21.7351 35.3846 21.5833 35.8332 21.5833C36.2818 21.5833 36.6578 21.7351 36.9613 22.0385C37.2648 22.342 37.4165 22.7181 37.4165 23.1667V29.5C37.4165 31.2417 36.7964 32.7326 35.5561 33.9729C34.3158 35.2132 32.8248 35.8333 31.0832 35.8333H24.4728ZM24.7498 24.75V12.0833C24.7498 11.6347 24.9016 11.2587 25.205 10.9552C25.5085 10.6517 25.8846 10.5 26.3332 10.5C26.7818 10.5 27.1578 10.6517 27.4613 10.9552C27.7648 11.2587 27.9165 11.6347 27.9165 12.0833V24.75H24.7498ZM29.4998 24.75V20C29.4998 19.5514 29.6516 19.1753 29.955 18.8719C30.2585 18.5684 30.6346 18.4167 31.0832 18.4167C31.5318 18.4167 31.9078 18.5684 32.2113 18.8719C32.5148 19.1753 32.6665 19.5514 32.6665 20V24.75H29.4998ZM7.33317 31.0833C6.46234 31.0833 5.71685 30.7733 5.09671 30.1531C4.47657 29.533 4.1665 28.7875 4.1665 27.9167V8.91667C4.1665 8.04583 4.47657 7.30035 5.09671 6.68021C5.71685 6.06007 6.46234 5.75 7.33317 5.75H31.0832C31.954 5.75 32.6995 6.06007 33.3196 6.68021C33.9398 7.30035 34.2498 8.04583 34.2498 8.91667V15.25H31.0832V8.91667H7.33317V27.9167H10.1832L13.3103 31.0833H7.33317Z" fill="#235CD6"/>
</svg>
