<svg width="47" height="47" viewBox="0 0 47 47" fill="none" xmlns="http://www.w3.org/2000/svg">
<path d="M24.6808 31.3086C24.9985 30.991 25.1573 30.5974 25.1573 30.1279C25.1573 29.6584 24.9985 29.2649 24.6808 28.9473C24.3632 28.6297 23.9697 28.4709 23.5002 28.4709C23.0307 28.4709 22.6372 28.6297 22.3196 28.9473C22.002 29.2649 21.8431 29.6584 21.8431 30.1279C21.8431 30.5974 22.002 30.991 22.3196 31.3086C22.6372 31.6262 23.0307 31.785 23.5002 31.785C23.9697 31.785 24.3632 31.6262 24.6808 31.3086ZM21.8431 25.1568H25.1573V15.2145H21.8431V25.1568ZM23.5002 40.0702C21.2079 40.0702 19.0538 39.6353 17.0377 38.7653C15.0216 37.8953 13.2679 36.7147 11.7766 35.2234C10.2852 33.732 9.10457 31.9783 8.23462 29.9622C7.36466 27.9461 6.92969 25.792 6.92969 23.4997C6.92969 21.2075 7.36466 19.0533 8.23462 17.0372C9.10457 15.0211 10.2852 13.2674 11.7766 11.7761C13.2679 10.2847 15.0216 9.10408 17.0377 8.23413C19.0538 7.36418 21.2079 6.9292 23.5002 6.9292C25.7925 6.9292 27.9466 7.36418 29.9627 8.23413C31.9788 9.10408 33.7325 10.2847 35.2238 11.7761C36.7152 13.2674 37.8958 15.0211 38.7658 17.0372C39.6357 19.0533 40.0707 21.2075 40.0707 23.4997C40.0707 25.792 39.6357 27.9461 38.7658 29.9622C37.8958 31.9783 36.7152 33.732 35.2238 35.2234C33.7325 36.7147 31.9788 37.8953 29.9627 38.7653C27.9466 39.6353 25.7925 40.0702 23.5002 40.0702ZM23.5002 36.7561C27.2009 36.7561 30.3355 35.4719 32.904 32.9035C35.4724 30.335 36.7566 27.2005 36.7566 23.4997C36.7566 19.799 35.4724 16.6644 32.904 14.0959C30.3355 11.5275 27.2009 10.2433 23.5002 10.2433C19.7995 10.2433 16.6649 11.5275 14.0964 14.0959C11.528 16.6644 10.2438 19.799 10.2438 23.4997C10.2438 27.2005 11.528 30.335 14.0964 32.9035C16.6649 35.4719 19.7995 36.7561 23.5002 36.7561Z" fill="#235CD6"/>
</svg>
