<svg width="26" height="23" viewBox="0 0 26 23" fill="none" xmlns="http://www.w3.org/2000/svg">
<path d="M4.33333 20.125V20.8438C4.33333 21.4427 4.12269 21.9518 3.70139 22.3711C3.28009 22.7904 2.76852 23 2.16667 23C1.56481 23 1.05324 22.7904 0.631944 22.3711C0.210648 21.9518 0 21.4427 0 20.8438V10.5656C0 10.3979 0.012037 10.2302 0.0361111 10.0625C0.0601852 9.89479 0.0962963 9.73906 0.144444 9.59531L2.85278 1.94062C3.04537 1.36563 3.39444 0.898438 3.9 0.539062C4.40556 0.179688 4.9713 0 5.59722 0H20.4028C21.0287 0 21.5944 0.179688 22.1 0.539062C22.6056 0.898438 22.9546 1.36563 23.1472 1.94062L25.8556 9.59531C25.9037 9.73906 25.9398 9.89479 25.9639 10.0625C25.988 10.2302 26 10.3979 26 10.5656V20.8438C26 21.4427 25.7894 21.9518 25.3681 22.3711C24.9468 22.7904 24.4352 23 23.8333 23C23.2315 23 22.7199 22.7904 22.2986 22.3711C21.8773 21.9518 21.6667 21.4427 21.6667 20.8438V20.125H4.33333ZM4.04444 7.1875H21.9556L20.4389 2.875H5.56111L4.04444 7.1875ZM6.5 15.8125C7.10185 15.8125 7.61343 15.6029 8.03472 15.1836C8.45602 14.7643 8.66667 14.2552 8.66667 13.6562C8.66667 13.0573 8.45602 12.5482 8.03472 12.1289C7.61343 11.7096 7.10185 11.5 6.5 11.5C5.89815 11.5 5.38657 11.7096 4.96528 12.1289C4.54398 12.5482 4.33333 13.0573 4.33333 13.6562C4.33333 14.2552 4.54398 14.7643 4.96528 15.1836C5.38657 15.6029 5.89815 15.8125 6.5 15.8125ZM19.5 15.8125C20.1019 15.8125 20.6134 15.6029 21.0347 15.1836C21.456 14.7643 21.6667 14.2552 21.6667 13.6562C21.6667 13.0573 21.456 12.5482 21.0347 12.1289C20.6134 11.7096 20.1019 11.5 19.5 11.5C18.8981 11.5 18.3866 11.7096 17.9653 12.1289C17.544 12.5482 17.3333 13.0573 17.3333 13.6562C17.3333 14.2552 17.544 14.7643 17.9653 15.1836C18.3866 15.6029 18.8981 15.8125 19.5 15.8125ZM2.88889 17.25H23.1111V10.0625H2.88889V17.25Z" fill="#F6714A"/>
</svg>
