<svg width="25" height="27" viewBox="0 0 25 27" fill="none" xmlns="http://www.w3.org/2000/svg">
<path d="M3.10162 23.4929H7.75406V15.9145C7.75406 15.4851 7.90268 15.1251 8.19992 14.8346C8.49716 14.5441 8.86547 14.3989 9.30487 14.3989H15.5081C15.9475 14.3989 16.3158 14.5441 16.6131 14.8346C16.9103 15.1251 17.0589 15.4851 17.0589 15.9145V23.4929H21.7114V9.85186L12.4065 3.03134L3.10162 9.85186V23.4929ZM0 23.4929V9.85186C0 9.37189 0.109849 8.91719 0.329547 8.48775C0.549246 8.05831 0.852946 7.70466 1.24065 7.42678L10.5455 0.606268C11.0883 0.202089 11.7086 0 12.4065 0C13.1044 0 13.7247 0.202089 14.2675 0.606268L23.5723 7.42678C23.96 7.70466 24.2637 8.05831 24.4834 8.48775C24.7031 8.91719 24.813 9.37189 24.813 9.85186V23.4929C24.813 24.3265 24.5093 25.0401 23.9019 25.6338C23.2945 26.2274 22.5643 26.5242 21.7114 26.5242H15.5081C15.0687 26.5242 14.7004 26.379 14.4032 26.0885C14.1059 25.798 13.9573 25.438 13.9573 25.0086V17.4302H10.8557V25.0086C10.8557 25.438 10.7071 25.798 10.4098 26.0885C10.1126 26.379 9.74427 26.5242 9.30487 26.5242H3.10162C2.24868 26.5242 1.5185 26.2274 0.911102 25.6338C0.303701 25.0401 0 24.3265 0 23.4929Z" fill="#7FD353"/>
</svg>
