<svg width="27" height="21" viewBox="0 0 27 21" fill="none" xmlns="http://www.w3.org/2000/svg">
<path d="M2.7 21C1.9575 21 1.32188 20.743 0.793125 20.2289C0.264375 19.7148 0 19.0969 0 18.375V2.625C0 1.90312 0.264375 1.28516 0.793125 0.771094C1.32188 0.257031 1.9575 0 2.7 0H24.3C25.0425 0 25.6781 0.257031 26.2069 0.771094C26.7356 1.28516 27 1.90312 27 2.625V18.375C27 19.0969 26.7356 19.7148 26.2069 20.2289C25.6781 20.743 25.0425 21 24.3 21H2.7ZM13.5 11.8125L2.7 5.25V18.375H24.3V5.25L13.5 11.8125ZM13.5 9.1875L24.3 2.625H2.7L13.5 9.1875ZM2.7 5.25V2.625V18.375V5.25Z" fill="#1772D7"/>
<path d="M2.7002 0.0126953H24.2998C25.0391 0.0126953 25.6718 0.268497 26.1982 0.780273C26.7245 1.29201 26.9873 1.90665 26.9873 2.625V18.375C26.9873 19.0933 26.7245 19.708 26.1982 20.2197C25.6718 20.7315 25.0391 20.9873 24.2998 20.9873H2.7002C1.96092 20.9873 1.32816 20.7315 0.801758 20.2197C0.27547 19.708 0.0126955 19.0933 0.0126953 18.375V2.625C0.0126953 1.90665 0.27547 1.29201 0.801758 0.780273C1.32816 0.268497 1.96092 0.0126953 2.7002 0.0126953ZM2.6875 5.25H2.67578L2.6875 5.25684V18.3877H24.3125V5.22754L24.2939 5.23926L13.5 11.7969L2.71289 5.24316V2.64746L13.4932 9.19824L13.5 9.1875L13.4863 9.21094L13.5068 9.19824L24.3066 2.63574L24.3447 2.6123H2.6875V5.25Z" stroke="#1772D7" stroke-opacity="0.1" stroke-width="0.025"/>
</svg>
