<svg width="36" height="34" viewBox="0 0 36 34" fill="none" xmlns="http://www.w3.org/2000/svg">
<path d="M36 10.017V30.0028C36 31.102 35.6083 32.0431 34.825 32.8258C34.0417 33.6086 33.1 34 32 34H4C2.9 34 1.95833 33.6086 1.175 32.8258C0.391667 32.0431 0 31.102 0 30.0028V8.81781C0 7.98507 0.225 7.2356 0.675 6.5694C1.125 5.90321 1.73333 5.42022 2.5 5.12043L14.5 0.323822C15.8333 -0.209134 17.0833 -0.0842223 18.25 0.698557C19.4167 1.48134 20 2.58889 20 4.02121V6.01979H32C33.1 6.01979 34.0417 6.41118 34.825 7.19396C35.6083 7.97674 36 8.91774 36 10.017ZM16 4.02121L4 8.81781V30.0028L16 25.2062V4.02121ZM32 10.017H20V25.2062C20 26.039 19.775 26.7884 19.325 27.4546C18.875 28.1208 18.2667 28.6038 17.5 28.9036L14.75 30.0028H32V10.017Z" fill="white"/>
</svg>
