<svg width="27" height="24" viewBox="0 0 27 24" fill="none" xmlns="http://www.w3.org/2000/svg">
<path d="M7.95727 23.9574V21.2954H10.6097V18.6335H2.65242C1.92301 18.6335 1.29858 18.3729 0.779149 17.8516C0.259716 17.3303 0 16.7036 0 15.9716V2.66193C0 1.9299 0.259716 1.30324 0.779149 0.781942C1.29858 0.260647 1.92301 0 2.65242 0H23.8718C24.6012 0 25.2256 0.260647 25.7451 0.781942C26.2645 1.30324 26.5242 1.9299 26.5242 2.66193V15.9716C26.5242 16.7036 26.2645 17.3303 25.7451 17.8516C25.2256 18.3729 24.6012 18.6335 23.8718 18.6335H15.9145V21.2954H18.567V23.9574H7.95727ZM2.65242 15.9716H23.8718V2.66193H2.65242V15.9716Z" fill="#4985EB"/>
</svg>
