<svg width="16" height="16" viewBox="0 0 16 16" fill="none" xmlns="http://www.w3.org/2000/svg">
<path d="M1.71124 15.4012C1.24065 15.4012 0.837795 15.2336 0.502677 14.8985C0.167559 14.5634 0 14.1605 0 13.6899V1.71124C0 1.24065 0.167559 0.837795 0.502677 0.502677C0.837795 0.167559 1.24065 0 1.71124 0H7.70058V1.71124H1.71124V13.6899H13.6899V7.70058H15.4012V13.6899C15.4012 14.1605 15.2336 14.5634 14.8985 14.8985C14.5634 15.2336 14.1605 15.4012 13.6899 15.4012H1.71124ZM5.73266 10.8664L4.53479 9.66851L12.4921 1.71124H9.41182V0H15.4012V5.98934H13.6899V2.90911L5.73266 10.8664Z" fill="#E3E3E3"/>
</svg>
