<svg width="94" height="85" viewBox="0 0 94 85" fill="none" xmlns="http://www.w3.org/2000/svg">
<path d="M28.2 85V75.5556H37.6V66.1111H9.4C6.815 66.1111 4.60208 65.1863 2.76125 63.3368C0.920417 61.4873 0 59.2639 0 56.6667V9.44444C0 6.84722 0.920417 4.62384 2.76125 2.77431C4.60208 0.924768 6.815 0 9.4 0H84.6C87.185 0 89.3979 0.924768 91.2387 2.77431C93.0796 4.62384 94 6.84722 94 9.44444V56.6667C94 59.2639 93.0796 61.4873 91.2387 63.3368C89.3979 65.1863 87.185 66.1111 84.6 66.1111H56.4V75.5556H65.8V85H28.2ZM9.4 56.6667H84.6V9.44444H9.4V56.6667Z" fill="white"/>
</svg>
