<svg width="25" height="25" viewBox="0 0 25 25" fill="none" xmlns="http://www.w3.org/2000/svg">
<path d="M8.08594 10.6641C6.86198 9.4401 6.25 7.96875 6.25 6.25C6.25 4.53125 6.86198 3.0599 8.08594 1.83594C9.3099 0.611979 10.7812 0 12.5 0C14.2188 0 15.6901 0.611979 16.9141 1.83594C18.138 3.0599 18.75 4.53125 18.75 6.25C18.75 7.96875 18.138 9.4401 16.9141 10.6641C15.6901 11.888 14.2188 12.5 12.5 12.5C10.7812 12.5 9.3099 11.888 8.08594 10.6641ZM0 25V20.625C0 19.7396 0.227865 18.9258 0.683594 18.1836C1.13932 17.4414 1.74479 16.875 2.5 16.4844C4.11458 15.6771 5.75521 15.0716 7.42188 14.668C9.08854 14.2643 10.7812 14.0625 12.5 14.0625C14.2188 14.0625 15.9115 14.2643 17.5781 14.668C19.2448 15.0716 20.8854 15.6771 22.5 16.4844C23.2552 16.875 23.8607 17.4414 24.3164 18.1836C24.7721 18.9258 25 19.7396 25 20.625V25H0Z" fill="#E63946"/>
</svg>
