<svg width="86" height="86" viewBox="0 0 86 86" fill="none" xmlns="http://www.w3.org/2000/svg">
<path d="M52.0875 77.7082C52.2236 78.0474 52.4603 78.337 52.7657 78.5379C53.0711 78.7387 53.4307 78.8414 53.7961 78.832C54.1616 78.8227 54.5154 78.7018 54.8102 78.4855C55.1049 78.2692 55.3264 77.968 55.445 77.6222L78.7367 9.53883C78.8514 9.22132 78.8733 8.87772 78.7998 8.54823C78.7263 8.21874 78.5605 7.91699 78.3218 7.67828C78.0831 7.43958 77.7814 7.27379 77.4519 7.20032C77.1224 7.12685 76.7788 7.14873 76.4613 7.26341L8.37795 30.5551C8.03214 30.6737 7.73089 30.8952 7.51462 31.1899C7.29836 31.4847 7.17743 31.8385 7.16807 32.204C7.15871 32.5694 7.26136 32.929 7.46226 33.2344C7.66315 33.5399 7.95267 33.7765 8.29195 33.9127L36.7078 45.3077C37.6061 45.6673 38.4222 46.2051 39.1071 46.8887C39.7919 47.5723 40.3312 48.3875 40.6925 49.2852L52.0875 77.7082Z" stroke="#1772D7" stroke-width="2" stroke-linecap="round" stroke-linejoin="round"/>
<path d="M78.3101 7.69336L39.1084 46.8914" stroke="#1772D7" stroke-width="2" stroke-linecap="round" stroke-linejoin="round"/>
</svg>
