<svg width="49" height="51" viewBox="0 0 49 51" fill="none" xmlns="http://www.w3.org/2000/svg">
<path d="M6.08471 1.0557L5.91464 7.19841L5.91379 7.22878L6.24156 6.91874C8.79149 4.50675 11.6382 2.73123 14.7814 1.59382C17.9248 0.456409 21.1008 -0.0673004 24.3091 0.0218417C27.5177 0.111037 30.66 0.811033 33.7355 2.12142C36.8106 3.43166 39.5544 5.36136 41.9664 7.91118C44.3784 10.4611 46.1532 13.3085 47.2906 16.4517C48.428 19.5951 48.9517 22.771 48.8626 25.9794C48.7734 29.1878 48.074 32.3297 46.7637 35.4051C45.4534 38.4803 43.5231 41.2247 40.9732 43.6366C38.4233 46.0486 35.5766 47.8228 32.4334 48.9602C29.2899 50.0977 26.1135 50.622 22.905 50.5328C19.6966 50.4436 16.5546 49.7443 13.4793 48.434C10.4077 47.1252 7.66711 45.1975 5.25718 42.6521L9.32095 38.8081C13.086 42.7843 17.6658 44.8477 23.0595 44.9976C28.4571 45.1476 33.1473 43.3394 37.1293 39.5729C41.1114 35.8062 43.1779 31.2234 43.328 25.8256C43.478 20.4278 41.6693 15.7372 37.9026 11.7551C34.136 7.77323 29.5535 5.70724 24.156 5.55711C18.7581 5.40706 14.0676 7.21582 10.0855 10.9825L9.75773 11.2925L9.7881 11.2934L15.9294 11.4634L15.8729 17.1009L0.0119154 16.6599L0.4528 0.800355L6.08471 1.0557Z" fill="white" stroke="white" stroke-width="0.025"/>
</svg>
