<svg width="50" height="51" viewBox="0 0 50 51" fill="none" xmlns="http://www.w3.org/2000/svg">
<path d="M43.3521 1.46481L43.381 7.6098L43.3812 7.64018L43.0606 7.3227C40.5668 4.85278 37.7616 3.01235 34.6453 1.80305C31.5289 0.593743 28.3658 -0.0027709 25.1562 0.0126618C21.9465 0.0281429 18.7889 0.655785 15.6841 1.89519C12.5797 3.13446 9.7923 5.00063 7.32244 7.49438C4.85252 9.98824 3.01278 12.7941 1.80348 15.9104C0.594172 19.0268 -0.00237874 22.1899 0.0130958 25.3995C0.0285766 28.6091 0.655633 31.7662 1.89493 34.8709C3.13424 37.9754 5.00096 40.7633 7.49482 43.2332C9.98863 45.7031 12.7939 47.5422 15.9101 48.7515C19.0267 49.9609 22.1902 50.5581 25.3999 50.5426C28.6095 50.5271 31.7667 49.9001 34.8713 48.6608C37.9721 47.4229 40.7563 45.5586 43.2241 43.0692L39.2496 39.1329C35.3942 43.0216 30.7683 44.9792 25.3725 45.0053C19.9729 45.0312 15.3255 43.1158 11.4311 39.2588C7.53653 35.4017 5.57578 30.7726 5.54973 25.3728C5.5237 19.973 7.43971 15.3252 11.2969 11.4306C15.1539 7.53632 19.7826 5.57611 25.1822 5.54999C30.5821 5.52395 35.2298 7.43996 39.1244 11.2971L39.4449 11.6146L39.4145 11.6147L33.2709 11.6437L33.198 17.2809L49.0649 17.2044L48.9884 1.33888L43.3521 1.46481Z" fill="white" stroke="white" stroke-width="0.025"/>
</svg>
