<svg width="38" height="38" viewBox="0 0 38 38" fill="none" xmlns="http://www.w3.org/2000/svg">
<path d="M13.6958 36.1001C10.3972 36.1001 7.59337 34.9324 5.28434 32.597C2.97531 30.2616 1.8208 27.4445 1.8208 24.1459C1.8208 20.8473 2.96212 18.0567 5.24476 15.7741C7.5274 13.4914 10.318 12.3501 13.6166 12.3501H14.1312L15.2 10.4897C15.5166 9.90913 15.9916 9.53308 16.625 9.36156C17.2583 9.19003 17.8652 9.27579 18.4458 9.61885L19.6333 10.2918L19.8312 9.9751C20.4382 8.84037 21.3882 8.10149 22.6812 7.75843C23.9743 7.41538 25.1882 7.57371 26.3229 8.23343L27.7083 9.0251L26.125 11.7563L24.7395 10.9647C24.3701 10.7536 23.9677 10.7074 23.5323 10.8261C23.0968 10.9449 22.7736 11.189 22.5625 11.5584L22.3645 11.8751L23.9479 12.7855C24.5021 13.1022 24.8649 13.5772 25.0364 14.2105C25.208 14.8438 25.1354 15.4376 24.8187 15.9918L23.75 17.8918C24.3569 18.8418 24.8121 19.8511 25.1156 20.9199C25.4191 21.9886 25.5708 23.0904 25.5708 24.2251C25.5708 27.5237 24.4163 30.3275 22.1073 32.6366C19.7982 34.9456 16.9944 36.1001 13.6958 36.1001ZM13.6958 32.9334C16.0972 32.9334 18.1489 32.0824 19.851 30.3803C21.5531 28.6782 22.4041 26.6265 22.4041 24.2251C22.4041 23.407 22.292 22.6022 22.0677 21.8105C21.8434 21.0188 21.5069 20.2668 21.0583 19.5543L20.0291 17.9313L21.6916 15.0813L17.575 12.7063L15.9125 15.5563H14.1708C11.6902 15.5563 9.53295 16.348 7.69893 17.9313C5.8649 19.5147 4.94788 21.5862 4.94788 24.1459C4.94788 26.5737 5.79893 28.6452 7.50101 30.3605C9.20309 32.0758 11.268 32.9334 13.6958 32.9334ZM31.6666 13.9334V10.7668H36.4166V13.9334H31.6666ZM22.9583 5.2251V0.475098H26.125V5.2251H22.9583ZM30.677 8.43135L28.4604 6.21468L31.825 2.8501L34.0416 5.06676L30.677 8.43135Z" fill="white"/>
</svg>
